<svg width="39" height="39" viewBox="0 0 39 39" fill="none" xmlns="http://www.w3.org/2000/svg">
<circle cx="19.308" cy="19.308" r="19.308" fill="white"/>
<path d="M13.9949 14.0077C13.6044 14.3983 13.6044 15.0314 13.9949 15.422L17.58 19.0071L13.9949 22.5923C13.6044 22.9828 13.6044 23.6159 13.9949 24.0065C14.3854 24.397 15.0186 24.397 15.4091 24.0065L18.9943 20.4213L22.5794 24.0065C22.9699 24.397 23.6031 24.397 23.9936 24.0065C24.3841 23.6159 24.3841 22.9828 23.9936 22.5922L20.4085 19.0071L23.9936 15.422C24.3841 15.0314 24.3841 14.3983 23.9936 14.0078C23.6031 13.6172 22.9699 13.6172 22.5794 14.0078L18.9943 17.5929L15.4091 14.0077C15.0186 13.6172 14.3854 13.6172 13.9949 14.0077Z" fill="#666666"/>
</svg>
